<svg width="303" height="412" viewBox="0 0 303 412" fill="none" xmlns="http://www.w3.org/2000/svg">
<g opacity="0.8">
<path d="M108.12 412.642L132.912 277.582L126.959 237.513L78.04 100.495L87.7368 48.0512L162.218 26.0137L199.68 51.1354L223.812 196.463L188.109 412.642H108.12Z" fill="#AC3022"/>
<path d="M130.25 259.707L73.7369 276.236L86.2978 222.355L70.7627 192.939L47.9552 186.656L17.8751 203.515L9.94263 234.915L17.8751 306.646L32.4202 324.166H76.7111L132.907 277.582L130.25 259.707Z" fill="#AC3022"/>
<path d="M215.725 147.807L243.745 126.501V26.0142L253.442 7.50501L274.599 3.09668L290.904 12.3492L301.041 32.1825L281.207 153.383L221.242 181.043L215.725 147.807Z" fill="#AC3022"/>
<path d="M16.4164 188.752C17.1398 192.128 18.2059 195.284 19.6951 198.326C20.0378 199.062 20.7994 200.501 21.2097 201.203C22.2801 203.005 24.0274 204.473 24.8016 206.449C25.6435 208.416 26.4092 210.447 26.8027 213.311L26.3542 213.781C23.4266 213.447 21.2139 211.932 19.454 210.096C17.2794 207.782 16.8479 204.347 15.9679 201.419C15.5702 199.815 15.2867 197.586 15.1936 195.944C15.0963 193.503 15.2487 191.079 15.7691 188.748L16.4164 188.752Z" fill="#AC3022"/>
<path d="M9.3098 291.003C11.7551 291.291 15.0127 291.963 17.4411 292.395C18.08 292.505 18.7569 292.492 19.4 292.479C20.8003 292.484 21.7057 293.296 22.6661 294.311C23.1864 294.861 23.711 295.509 24.2948 296.494L24.2441 297.142C22.8945 298.631 21.2487 299.223 19.4465 299.227C17.8388 299.278 16.6966 297.992 15.4824 297.188C14.2682 296.397 13.1428 295.517 12.064 294.569C11.0063 293.609 9.9825 292.649 9.01367 291.578L9.3098 291.003Z" fill="#AC3022"/>
<path d="M0 223.258C2.52148 220.381 5.54645 217.944 8.82099 215.96C10.4583 214.978 11.994 213.519 14.0036 213.375C15.9624 213.201 18.0311 213.387 20.2057 214.754L20.3411 215.388C18.9407 217.517 17.4684 218.633 15.9411 219.552C14.4096 220.525 12.5271 220.313 10.8306 220.736C9.09598 221.165 7.36705 221.63 5.64375 222.132C3.89225 222.623 2.15345 223.215 0.359648 223.795L0 223.258Z" fill="#AC3022"/>
<path d="M21.3133 324.738C19.0837 321.806 20.3317 317.558 21.3598 314.428C21.9182 312.833 22.1467 310.908 23.5639 309.77C25.0827 308.492 26.8131 307.752 28.9877 307.845L29.4531 308.293C29.6392 310.345 29.4023 311.902 28.7804 313.603C28.2896 315.058 26.8216 315.777 25.8993 316.915C24.1943 319.225 21.8379 321.379 21.9098 324.484L21.3133 324.738Z" fill="#AC3022"/>
<path d="M2.25011 202.927C5.85041 203.104 9.41263 203.87 12.8225 205.063C14.5064 205.66 16.5032 205.859 17.7978 207.246C19.0839 208.579 20.1712 210.208 20.4547 212.683L20.0612 213.195C17.6158 213.575 15.8898 213.22 14.2863 212.683C12.6364 212.179 11.6845 210.635 10.373 209.628C9.03326 208.596 7.67941 207.579 6.31149 206.578C4.92806 205.546 3.49393 204.572 2.03857 203.54L2.25011 202.927Z" fill="#AC3022"/>
<path d="M12.0018 311.784C12.8226 308.911 14.5359 306.28 16.6978 304.19C17.7893 303.14 18.7836 301.639 20.4335 301.431C22.2443 301.173 23.9535 301.528 25.5188 302.819L25.6626 303.449C24.9053 305.171 24.1692 306.288 22.9973 307.375C22.0793 308.289 20.6873 308.065 19.5578 308.505C18.3732 308.959 17.2083 309.479 16.0632 310.066C14.8744 310.654 13.7279 311.373 12.5307 312.164L12.0018 311.784Z" fill="#AC3022"/>
<path d="M96.2141 222.691C93.2103 224.971 89.6227 226.532 85.9294 227.37C84.0679 227.789 82.1006 228.635 80.1629 228.034C78.2633 227.476 76.4061 226.481 75.0481 224.332L75.1919 223.702C77.2987 222.348 78.9741 221.878 80.6283 221.578C82.3037 221.223 83.8816 222.064 85.5274 222.208C87.2225 222.352 88.926 222.417 90.6381 222.403C92.3853 222.407 94.1496 222.268 95.973 222.09L96.2141 222.691Z" fill="#AC3022"/>
<path d="M90.6337 263.659C93.1383 263.905 95.554 265.009 97.5255 266.587C98.5155 267.382 99.9666 268.029 100.199 269.447C100.491 271.05 100.14 272.535 98.9386 273.94L98.3209 274.13C96.6752 273.72 95.609 273.339 94.4964 272.51C94.1071 272.205 93.8998 271.824 93.8279 271.325C93.6798 269.772 92.8591 268.44 92.1483 267.073C91.6364 266.117 91.0145 265.203 90.3164 264.226L90.6337 263.659Z" fill="#AC3022"/>
<path d="M90.1646 237.894C86.3782 236.066 82.8582 233.875 78.8771 232.559C76.2414 231.455 75.0822 229.555 74.0288 226.399L74.3249 225.82C76.6307 224.995 78.5091 225.24 80.2141 225.781C82.7102 226.755 84.0725 229.361 86.0186 231.074C87.732 233.058 89.3227 235.14 90.613 237.424L90.1646 237.894Z" fill="#AC3022"/>
<path d="M103.439 259.577C103.177 262.179 103.105 264.612 103.219 267.171C103.261 268.335 103.989 269.515 103.464 270.658C102.859 272.096 102.047 273.124 100.655 274.326L100.012 274.393C98.324 273.407 97.4144 272.062 96.9956 270.37C96.6275 268.17 98.3113 266.241 99.0178 264.269C100.046 262.42 101.294 260.677 102.864 259.281L103.439 259.577Z" fill="#AC3022"/>
<path d="M85.4814 148.263C85.2529 145.251 85.8452 142.166 87.0044 139.361C87.5882 137.961 87.8759 136.188 89.2848 135.304C90.8247 134.302 92.5086 133.883 94.497 134.327L94.9073 134.83C94.975 136.738 94.755 138.105 94.1161 139.611C93.6296 140.863 92.2377 141.282 91.3493 142.175C90.4185 143.103 89.5245 144.073 88.6671 145.086C87.7744 146.118 86.9579 147.243 86.1075 148.432L85.4814 148.263Z" fill="#AC3022"/>
<path d="M155.85 12.5361C159.746 15.0872 161.604 19.8256 162.864 24.1451C163.427 26.087 164.531 28.8581 164.057 30.9057C163.668 33.1987 162.818 35.4833 160.766 37.404L160.127 37.3194C158.617 34.9841 158.033 32.9787 157.584 30.9776C157.098 28.968 157.779 26.9458 157.745 24.9235C157.601 20.8283 157.559 16.6568 155.393 12.993L155.85 12.5361Z" fill="#AC3022"/>
<path d="M77.5352 124.893C80.0948 126.052 82.5443 127.093 85.125 128.099C86.3181 128.578 87.8158 128.472 88.7465 129.496C89.8973 130.693 90.5826 131.945 91.0649 133.807L90.8195 134.403C89.0892 135.402 87.4562 135.583 85.7132 135.215C83.5217 134.581 82.3921 132.25 80.7463 130.832C79.3248 129.144 78.0387 127.346 77.0825 125.358L77.5352 124.893Z" fill="#AC3022"/>
<path d="M177.02 23.977C174.426 25.407 172.167 27.0781 170.12 29.1173C169.625 29.5869 168.69 30.5853 168.25 31.1057C167.095 32.4638 166.57 34.2745 165.149 35.3999C163.778 36.5591 162.314 37.6548 159.911 38.7379L159.314 38.484C158.447 35.9329 158.963 33.5806 159.936 31.5584C161.159 29.0623 164.036 27.8142 166.257 26.3335C167.501 25.5974 169.307 24.8359 170.674 24.3789C172.713 23.7443 174.79 23.3551 176.859 23.3467L177.02 23.977Z" fill="#AC3022"/>
<path d="M234.972 106.341C236.978 103.638 240.189 102.381 243.311 101.383C244.75 100.947 246.129 101.65 247.14 102.733C247.673 103.316 248.134 104.04 248.396 105.098L248.193 105.715C246.878 106.811 245.951 107.458 244.623 107.902C243.624 108.271 242.774 107.391 241.826 107.234C240.808 107.045 239.774 106.92 238.725 106.857C237.629 106.773 236.504 106.819 235.286 106.908L234.972 106.341Z" fill="#AC3022"/>
<path d="M277.413 168.371C276.711 165.003 275.898 161.644 273.779 158.932C272.434 156.965 273.026 154.803 273.572 152.417L274.092 152.032C275.268 152.07 276.182 152.4 276.973 152.849C278.488 153.716 279.689 155.074 279.833 156.834C279.888 157.68 279.867 158.522 279.926 159.33C280.121 162.465 279.537 165.727 278.052 168.477L277.413 168.371Z" fill="#AC3022"/>
<path d="M235.43 89.1396C237.625 91.8134 239.965 94.1361 242.618 96.2768C243.861 97.2837 245.541 97.7321 246.463 99.1113C247.403 100.436 248.244 101.899 248.799 104.307L248.469 104.865C246.049 105.512 244.052 104.975 242.33 104.091C240.545 103.215 239.749 101.265 238.734 99.7036C236.729 96.5941 235.311 93.0446 234.833 89.3977L235.43 89.1396Z" fill="#AC3022"/>
<path d="M289.918 157.46C287.206 159.445 283.314 159.478 280.162 158.476C278.601 157.985 276.693 157.748 275.656 156.348C274.505 154.85 273.985 153.272 274.074 151.199L274.501 150.712C276.456 150.391 278.008 150.632 279.616 151.229C280.944 151.664 281.478 153.031 282.476 153.843C284.579 155.527 286.88 156.754 289.715 156.847L289.918 157.46Z" fill="#AC3022"/>
<path d="M112.19 338.486L118.951 346.952C120.038 348.314 121.65 349.342 122.208 351.077C122.797 352.765 123.186 354.588 122.784 357.08L122.259 357.461C119.75 357.051 118.122 355.908 116.768 354.584C114.86 352.481 114.652 349.406 113.502 346.893C112.677 344.219 111.979 341.524 111.598 338.744L112.19 338.486Z" fill="#AC3022"/>
<path d="M207.152 357.836C205.498 356.838 203.835 355.7 202.257 354.634C201.347 353.953 200.095 353.056 199.054 352.59C197.07 351.342 196.968 348.939 197.277 346.621L197.73 346.155C199.583 345.804 201.034 346.041 202.485 346.824C203.746 347.471 203.983 348.998 204.617 350.115L205.54 351.854C206.352 353.623 207.173 355.56 207.668 357.447L207.152 357.836Z" fill="#AC3022"/>
<path d="M290.402 147.96C289.264 150.122 287.373 151.878 285.219 153.05C284.136 153.633 283.007 154.704 281.649 154.357C280.092 153.98 278.911 153.071 278.137 151.421L278.209 150.778C279.208 149.432 279.927 148.607 281.09 147.909C281.501 147.672 281.915 147.634 282.376 147.766C283.798 148.256 285.291 148.045 286.772 147.956C287.813 147.88 288.866 147.681 290.004 147.448L290.402 147.96Z" fill="#AC3022"/>
<path d="M107.779 371.1C109.124 368.405 111.011 365.714 112.966 363.425C113.956 362.279 114.654 360.675 116.194 360.129C117.915 359.482 119.591 359.351 121.558 359.969L121.909 360.51C121.698 362.511 121.084 363.958 120.001 365.363C119.104 366.598 117.48 366.776 116.219 367.453C115.25 367.977 113.287 369.01 112.306 369.505C110.96 370.173 109.64 370.888 108.236 371.556L107.779 371.1Z" fill="#AC3022"/>
<path d="M209.109 342.734C209.443 343.458 209.147 344.397 208.719 345.032C206.976 347.524 204.176 348.535 201.366 349.351C199.801 349.757 198.278 348.932 197.305 347.676C196.793 347.037 196.395 346.208 196.298 345.121L196.603 344.549C197.542 343.983 198.202 343.657 198.794 343.373C199.814 342.929 200.588 342.438 201.569 342.946C202.403 343.483 203.368 343.644 204.353 343.669C205.305 343.758 206.477 343.703 207.378 343.513C207.818 343.386 208.237 343.259 208.461 342.794L209.109 342.734Z" fill="#AC3022"/>
<path d="M105.699 353.065C109.088 352.688 112.544 352.968 115.874 353.733C117.528 354.123 119.457 354.101 120.786 355.341C122.267 356.674 123.269 358.26 123.57 360.426L123.206 360.964C121.175 361.484 119.538 361.459 117.723 361.044C116.153 360.735 115.189 359.339 113.902 358.522C112.58 357.679 111.237 356.861 109.875 356.069C108.491 355.248 107.057 354.499 105.577 353.699L105.699 353.065Z" fill="#AC3022"/>
<path d="M285.603 0C287.088 1.82765 288.137 3.96836 288.793 6.22753C289.102 7.32751 289.948 8.51213 289.411 9.69672C288.801 11.1055 287.799 12.049 286.149 12.7047L285.51 12.5989C284.207 11.5159 283.45 10.6274 282.95 9.31171C282.536 8.29635 283.412 7.39521 283.619 6.44754C283.856 5.44628 284.086 4.43654 284.308 3.41836C284.554 2.37339 284.736 1.29882 284.977 0.160768L285.603 0Z" fill="#AC3022"/>
<path d="M298.328 5.75552C295.891 7.73125 293.442 9.70701 292.134 12.5627C291.88 13.1042 291.563 13.4596 291.161 13.6754C289.951 14.3142 289.054 14.1196 287.705 15.2534L287.066 15.3507C285.111 14.2211 285.196 11.4246 286.017 9.74507C286.757 8.02318 288.428 7.68051 289.744 6.95284C292.308 5.59479 295.286 4.89247 298.155 5.12939L298.328 5.75552Z" fill="#AC3022"/>
<path d="M300.54 16.2357L301.068 16.2526L300.599 17.1791C298.255 16.8449 296.038 16.8322 293.728 16.9041C293.166 16.938 292.582 17.0987 292.019 17.1876C290.754 17.3399 289.764 16.5868 288.829 15.6942C288.309 15.1822 287.793 14.5604 287.31 13.6042L287.382 12.9612C288.905 11.2308 290.961 9.92779 293.123 10.7612C295.962 12.297 299.088 13.6465 301.123 16.278L300.65 17.2045L300.277 16.828L300.54 16.2357Z" fill="#AC3022"/>
<path d="M302.422 84.297C300.704 85.2235 298.826 86.0612 297.057 86.8481C295.974 87.2627 294.514 87.855 293.533 88.4769C291.371 89.4753 289.239 88.2654 287.462 86.6873L287.335 86.0527C288.092 84.3224 289.091 83.252 290.546 82.4651C291.769 81.767 293.173 82.3932 294.455 82.4524L296.427 82.592C298.364 82.8289 300.45 83.1335 302.35 83.6539L302.422 84.297Z" fill="#AC3022"/>
<path d="M108.12 412.642L132.912 277.582L126.959 237.513L78.04 100.495L87.7368 48.0512L162.218 26.0137L199.68 51.1354L223.812 196.463L188.109 412.642H108.12Z" fill="#5A1E17"/>
<path d="M130.25 259.707L73.7369 276.236L86.2978 222.355L70.7627 192.939L47.9552 186.656L17.8751 203.515L9.94263 234.915L17.8751 306.646L32.4202 324.166H76.7111L132.907 277.582L130.25 259.707Z" fill="#5A1E17"/>
<path d="M215.725 147.807L243.745 126.501V26.0142L253.442 7.50501L274.599 3.09668L290.904 12.3492L301.041 32.1825L281.207 153.383L221.242 181.043L215.725 147.807Z" fill="#5A1E17"/>
<path d="M16.4164 188.752C17.1398 192.128 18.2059 195.284 19.6951 198.326C20.0378 199.062 20.7994 200.501 21.2097 201.203C22.2801 203.005 24.0274 204.473 24.8016 206.449C25.6435 208.416 26.4092 210.447 26.8027 213.311L26.3542 213.781C23.4266 213.447 21.2139 211.932 19.454 210.096C17.2794 207.782 16.8479 204.347 15.9679 201.419C15.5702 199.815 15.2867 197.586 15.1936 195.944C15.0963 193.503 15.2487 191.079 15.7691 188.748L16.4164 188.752Z" fill="#5A1E17"/>
<path d="M9.3098 291.003C11.7551 291.291 15.0127 291.963 17.4411 292.395C18.08 292.505 18.7569 292.492 19.4 292.479C20.8003 292.484 21.7057 293.296 22.6661 294.311C23.1864 294.861 23.711 295.509 24.2948 296.494L24.2441 297.142C22.8945 298.631 21.2487 299.223 19.4465 299.227C17.8388 299.278 16.6966 297.992 15.4824 297.188C14.2682 296.397 13.1428 295.517 12.064 294.569C11.0063 293.609 9.9825 292.649 9.01367 291.578L9.3098 291.003Z" fill="#5A1E17"/>
<path d="M0 223.258C2.52148 220.381 5.54645 217.944 8.82099 215.96C10.4583 214.978 11.994 213.519 14.0036 213.375C15.9624 213.201 18.0311 213.387 20.2057 214.754L20.3411 215.388C18.9407 217.517 17.4684 218.633 15.9411 219.552C14.4096 220.525 12.5271 220.313 10.8306 220.736C9.09598 221.165 7.36705 221.63 5.64375 222.132C3.89225 222.623 2.15345 223.215 0.359648 223.795L0 223.258Z" fill="#5A1E17"/>
<path d="M21.3133 324.738C19.0837 321.806 20.3317 317.558 21.3598 314.428C21.9182 312.833 22.1467 310.908 23.5639 309.77C25.0827 308.492 26.8131 307.752 28.9877 307.845L29.4531 308.293C29.6392 310.345 29.4023 311.902 28.7804 313.603C28.2896 315.058 26.8216 315.777 25.8993 316.915C24.1943 319.225 21.8379 321.379 21.9098 324.484L21.3133 324.738Z" fill="#5A1E17"/>
<path d="M2.25011 202.927C5.85041 203.104 9.41263 203.87 12.8225 205.063C14.5064 205.66 16.5032 205.859 17.7978 207.246C19.0839 208.579 20.1712 210.208 20.4547 212.683L20.0612 213.195C17.6158 213.575 15.8898 213.22 14.2863 212.683C12.6364 212.179 11.6845 210.635 10.373 209.628C9.03326 208.596 7.67941 207.579 6.31149 206.578C4.92806 205.546 3.49393 204.572 2.03857 203.54L2.25011 202.927Z" fill="#5A1E17"/>
<path d="M12.0018 311.784C12.8226 308.911 14.5359 306.28 16.6978 304.19C17.7893 303.14 18.7836 301.639 20.4335 301.431C22.2443 301.173 23.9535 301.528 25.5188 302.819L25.6626 303.449C24.9053 305.171 24.1692 306.288 22.9973 307.375C22.0793 308.289 20.6873 308.065 19.5578 308.505C18.3732 308.959 17.2083 309.479 16.0632 310.066C14.8744 310.654 13.7279 311.373 12.5307 312.164L12.0018 311.784Z" fill="#5A1E17"/>
<path d="M96.2141 222.691C93.2103 224.971 89.6227 226.532 85.9294 227.37C84.0679 227.789 82.1006 228.635 80.1629 228.034C78.2633 227.476 76.4061 226.481 75.0481 224.332L75.1919 223.702C77.2987 222.348 78.9741 221.878 80.6283 221.578C82.3037 221.223 83.8816 222.064 85.5274 222.208C87.2225 222.352 88.926 222.417 90.6381 222.403C92.3853 222.407 94.1496 222.268 95.973 222.09L96.2141 222.691Z" fill="#5A1E17"/>
<path d="M90.6337 263.659C93.1383 263.905 95.554 265.009 97.5255 266.587C98.5155 267.382 99.9666 268.029 100.199 269.447C100.491 271.05 100.14 272.535 98.9386 273.94L98.3209 274.13C96.6752 273.72 95.609 273.339 94.4964 272.51C94.1071 272.205 93.8998 271.824 93.8279 271.325C93.6798 269.772 92.8591 268.44 92.1483 267.073C91.6364 266.117 91.0145 265.203 90.3164 264.226L90.6337 263.659Z" fill="#5A1E17"/>
<path d="M90.1646 237.894C86.3782 236.066 82.8582 233.875 78.8771 232.559C76.2414 231.455 75.0822 229.555 74.0288 226.399L74.3249 225.82C76.6307 224.995 78.5091 225.24 80.2141 225.781C82.7102 226.755 84.0725 229.361 86.0186 231.074C87.732 233.058 89.3227 235.14 90.613 237.424L90.1646 237.894Z" fill="#5A1E17"/>
<path d="M103.439 259.577C103.177 262.179 103.105 264.612 103.219 267.171C103.261 268.335 103.989 269.515 103.464 270.658C102.859 272.096 102.047 273.124 100.655 274.326L100.012 274.393C98.324 273.407 97.4144 272.062 96.9956 270.37C96.6275 268.17 98.3113 266.241 99.0178 264.269C100.046 262.42 101.294 260.677 102.864 259.281L103.439 259.577Z" fill="#5A1E17"/>
<path d="M85.4814 148.263C85.2529 145.251 85.8452 142.166 87.0044 139.361C87.5882 137.961 87.8759 136.188 89.2848 135.304C90.8247 134.302 92.5086 133.883 94.497 134.327L94.9073 134.83C94.975 136.738 94.755 138.105 94.1161 139.611C93.6296 140.863 92.2377 141.282 91.3493 142.175C90.4185 143.103 89.5245 144.073 88.6671 145.086C87.7744 146.118 86.9579 147.243 86.1075 148.432L85.4814 148.263Z" fill="#5A1E17"/>
<path d="M155.85 12.5361C159.746 15.0872 161.604 19.8256 162.864 24.1451C163.427 26.087 164.531 28.8581 164.057 30.9057C163.668 33.1987 162.818 35.4833 160.766 37.404L160.127 37.3194C158.617 34.9841 158.033 32.9787 157.584 30.9776C157.098 28.968 157.779 26.9458 157.745 24.9235C157.601 20.8283 157.559 16.6568 155.393 12.993L155.85 12.5361Z" fill="#5A1E17"/>
<path d="M77.5352 124.893C80.0948 126.052 82.5443 127.093 85.125 128.099C86.3181 128.578 87.8158 128.472 88.7465 129.496C89.8973 130.693 90.5826 131.945 91.0649 133.807L90.8195 134.403C89.0892 135.402 87.4562 135.583 85.7132 135.215C83.5217 134.581 82.3921 132.25 80.7463 130.832C79.3248 129.144 78.0387 127.346 77.0825 125.358L77.5352 124.893Z" fill="#5A1E17"/>
<path d="M177.02 23.977C174.426 25.407 172.167 27.0781 170.12 29.1173C169.625 29.5869 168.69 30.5853 168.25 31.1057C167.095 32.4638 166.57 34.2745 165.149 35.3999C163.778 36.5591 162.314 37.6548 159.911 38.7379L159.314 38.484C158.447 35.9329 158.963 33.5806 159.936 31.5584C161.159 29.0623 164.036 27.8142 166.257 26.3335C167.501 25.5974 169.307 24.8359 170.674 24.3789C172.713 23.7443 174.79 23.3551 176.859 23.3467L177.02 23.977Z" fill="#5A1E17"/>
<path d="M234.972 106.341C236.978 103.638 240.189 102.381 243.311 101.383C244.75 100.947 246.129 101.65 247.14 102.733C247.673 103.316 248.134 104.04 248.396 105.098L248.193 105.715C246.878 106.811 245.951 107.458 244.623 107.902C243.624 108.271 242.774 107.391 241.826 107.234C240.808 107.045 239.774 106.92 238.725 106.857C237.629 106.773 236.504 106.819 235.286 106.908L234.972 106.341Z" fill="#5A1E17"/>
<path d="M277.413 168.371C276.711 165.003 275.898 161.644 273.779 158.932C272.434 156.965 273.026 154.803 273.572 152.417L274.092 152.032C275.268 152.07 276.182 152.4 276.973 152.849C278.488 153.716 279.689 155.074 279.833 156.834C279.888 157.68 279.867 158.522 279.926 159.33C280.121 162.465 279.537 165.727 278.052 168.477L277.413 168.371Z" fill="#5A1E17"/>
<path d="M235.43 89.1396C237.625 91.8134 239.965 94.1361 242.618 96.2768C243.861 97.2837 245.541 97.7321 246.463 99.1113C247.403 100.436 248.244 101.899 248.799 104.307L248.469 104.865C246.049 105.512 244.052 104.975 242.33 104.091C240.545 103.215 239.749 101.265 238.734 99.7036C236.729 96.5941 235.311 93.0446 234.833 89.3977L235.43 89.1396Z" fill="#5A1E17"/>
<path d="M289.918 157.46C287.206 159.445 283.314 159.478 280.162 158.476C278.601 157.985 276.693 157.748 275.656 156.348C274.505 154.85 273.985 153.272 274.074 151.199L274.501 150.712C276.456 150.391 278.008 150.632 279.616 151.229C280.944 151.664 281.478 153.031 282.476 153.843C284.579 155.527 286.88 156.754 289.715 156.847L289.918 157.46Z" fill="#5A1E17"/>
<path d="M112.19 338.486L118.951 346.952C120.038 348.314 121.65 349.342 122.208 351.077C122.797 352.765 123.186 354.588 122.784 357.08L122.259 357.461C119.75 357.051 118.122 355.908 116.768 354.584C114.86 352.481 114.652 349.406 113.502 346.893C112.677 344.219 111.979 341.524 111.598 338.744L112.19 338.486Z" fill="#5A1E17"/>
<path d="M207.152 357.836C205.498 356.838 203.835 355.7 202.257 354.634C201.347 353.953 200.095 353.056 199.054 352.59C197.07 351.342 196.968 348.939 197.277 346.621L197.73 346.155C199.583 345.804 201.034 346.041 202.485 346.824C203.746 347.471 203.983 348.998 204.617 350.115L205.54 351.854C206.352 353.623 207.173 355.56 207.668 357.447L207.152 357.836Z" fill="#5A1E17"/>
<path d="M290.402 147.96C289.264 150.122 287.373 151.878 285.219 153.05C284.136 153.633 283.007 154.704 281.649 154.357C280.092 153.98 278.911 153.071 278.137 151.421L278.209 150.778C279.208 149.432 279.927 148.607 281.09 147.909C281.501 147.672 281.915 147.634 282.376 147.766C283.798 148.256 285.291 148.045 286.772 147.956C287.813 147.88 288.866 147.681 290.004 147.448L290.402 147.96Z" fill="#5A1E17"/>
<path d="M107.779 371.1C109.124 368.405 111.011 365.714 112.966 363.425C113.956 362.279 114.654 360.675 116.194 360.129C117.915 359.482 119.591 359.351 121.558 359.969L121.909 360.51C121.698 362.511 121.084 363.958 120.001 365.363C119.104 366.598 117.48 366.776 116.219 367.453C115.25 367.977 113.287 369.01 112.306 369.505C110.96 370.173 109.64 370.888 108.236 371.556L107.779 371.1Z" fill="#5A1E17"/>
<path d="M209.109 342.734C209.443 343.458 209.147 344.397 208.719 345.032C206.976 347.524 204.176 348.535 201.366 349.351C199.801 349.757 198.278 348.932 197.305 347.676C196.793 347.037 196.395 346.208 196.298 345.121L196.603 344.549C197.542 343.983 198.202 343.657 198.794 343.373C199.814 342.929 200.588 342.438 201.569 342.946C202.403 343.483 203.368 343.644 204.353 343.669C205.305 343.758 206.477 343.703 207.378 343.513C207.818 343.386 208.237 343.259 208.461 342.794L209.109 342.734Z" fill="#5A1E17"/>
<path d="M105.699 353.065C109.088 352.688 112.544 352.968 115.874 353.733C117.528 354.123 119.457 354.101 120.786 355.341C122.267 356.674 123.269 358.26 123.57 360.426L123.206 360.964C121.175 361.484 119.538 361.459 117.723 361.044C116.153 360.735 115.189 359.339 113.902 358.522C112.58 357.679 111.237 356.861 109.875 356.069C108.491 355.248 107.057 354.499 105.577 353.699L105.699 353.065Z" fill="#5A1E17"/>
<path d="M285.603 0C287.088 1.82765 288.137 3.96836 288.793 6.22753C289.102 7.32751 289.948 8.51213 289.411 9.69672C288.801 11.1055 287.799 12.049 286.149 12.7047L285.51 12.5989C284.207 11.5159 283.45 10.6274 282.95 9.31171C282.536 8.29635 283.412 7.39521 283.619 6.44754C283.856 5.44628 284.086 4.43654 284.308 3.41836C284.554 2.37339 284.736 1.29882 284.977 0.160768L285.603 0Z" fill="#5A1E17"/>
<path d="M298.328 5.75552C295.891 7.73125 293.442 9.70701 292.134 12.5627C291.88 13.1042 291.563 13.4596 291.161 13.6754C289.951 14.3142 289.054 14.1196 287.705 15.2534L287.066 15.3507C285.111 14.2211 285.196 11.4246 286.017 9.74507C286.757 8.02318 288.428 7.68051 289.744 6.95284C292.308 5.59479 295.286 4.89247 298.155 5.12939L298.328 5.75552Z" fill="#5A1E17"/>
<path d="M300.54 16.2357L301.068 16.2526L300.599 17.1791C298.255 16.8449 296.038 16.8322 293.728 16.9041C293.166 16.938 292.582 17.0987 292.019 17.1876C290.754 17.3399 289.764 16.5868 288.829 15.6942C288.309 15.1822 287.793 14.5604 287.31 13.6042L287.382 12.9612C288.905 11.2308 290.961 9.92779 293.123 10.7612C295.962 12.297 299.088 13.6465 301.123 16.278L300.65 17.2045L300.277 16.828L300.54 16.2357Z" fill="#5A1E17"/>
<path d="M302.422 84.297C300.704 85.2235 298.826 86.0612 297.057 86.8481C295.974 87.2627 294.514 87.855 293.533 88.4769C291.371 89.4753 289.239 88.2654 287.462 86.6873L287.335 86.0527C288.092 84.3224 289.091 83.252 290.546 82.4651C291.769 81.767 293.173 82.3932 294.455 82.4524L296.427 82.592C298.364 82.8289 300.45 83.1335 302.35 83.6539L302.422 84.297Z" fill="#5A1E17"/>
<path d="M97.6471 36.9133C101.84 31.0581 109.332 27.0051 116.283 28.8793C117.578 29.2304 118.838 29.7846 119.841 30.6773C121.787 32.4161 122.477 35.2295 122.257 37.8272C122.033 40.4248 121.017 42.8828 120.015 45.2901C118.305 49.3896 116.389 53.7472 112.628 56.1079C108.617 58.6293 96.2001 60.2793 92.7394 55.8921C89.118 51.3018 94.8421 40.8225 97.6471 36.9133Z" fill="#5A1E17"/>
<path fill-rule="evenodd" clip-rule="evenodd" d="M97.5915 36.8746C102.203 30.4948 111.045 25.786 118.749 29.5132C124.875 33.0289 122.519 41.1053 120.12 46.2498C117.814 52.2912 114.417 57.5118 107.559 58.5779C87.146 62.3221 88.1655 50.3705 97.5915 36.8746ZM97.6972 36.9507C94.6046 41.5749 87.7849 54.398 95.7724 57.1607C101.111 58.6583 107.809 58.0407 112.682 55.3711C115.944 53.1754 117.717 49.427 119.257 45.8859C121.558 41.0376 124.122 33.5197 118.432 30.0759C111.159 26.2598 102.114 30.6301 97.6972 36.9507Z" fill="#AC3022"/>
<path d="M98.8429 20.1601C97.7006 19.132 96.3045 18.4297 94.9126 17.774C93.7068 17.2071 92.4757 16.6656 91.1684 16.4075C86.8446 15.5571 82.3094 18.142 80.0714 21.9369C77.8291 25.7319 77.6133 30.4618 78.5864 34.7601C80.0502 41.2288 87.0097 59.3107 94.5868 48.6579C99.3844 41.9057 106.538 27.0603 98.8429 20.1601Z" fill="#5A1E17"/>
<path fill-rule="evenodd" clip-rule="evenodd" d="M97.9128 41.7497C96.0852 44.8 93.2168 51.9879 89.0115 51.239C86.3293 50.5071 84.6794 47.8545 83.2706 45.5403C79.8056 38.9616 76.6114 30.8387 79.6194 23.5281C81.0452 20.0082 84.2774 17.1652 88.0977 16.4925C91.9349 15.8833 95.8229 17.9648 98.7971 20.2113C104.737 26.1385 101.069 35.3063 97.9128 41.7497ZM88.0555 16.226C84.1125 16.7887 80.6475 19.6105 79.0272 23.2701C77.4026 26.9508 77.3476 31.1306 78.2065 34.9932C79.7253 40.6835 81.684 46.6107 85.9612 50.8752C90.065 54.704 93.9868 51.2771 96.1741 47.4949C98.3148 44.1611 100.045 40.5777 101.251 36.804C102.909 31.3295 103.557 24.3066 98.8859 20.114C95.8229 17.8421 91.9985 15.7395 88.0555 16.226Z" fill="#AC3022"/>
<path d="M61.7258 42.4161C60.4862 42.3611 59.2255 42.3399 58.0282 42.6615C56.3782 43.1099 54.9779 44.176 53.6241 45.2168C50.8615 47.3406 47.8747 49.8579 47.5193 53.3228C47.2654 55.7808 48.4415 58.1669 49.8884 60.168C54.4025 66.4167 62.2039 70.3174 69.8783 69.5728C76.4655 68.9382 82.3039 65.1729 87.6303 61.2383C93.3163 57.0373 94.4586 50.9663 87.3891 48.2163C79.1605 45.0137 70.5721 42.8222 61.7258 42.4161Z" fill="#5A1E17"/>
<path fill-rule="evenodd" clip-rule="evenodd" d="M61.7324 42.3526C68.8061 42.6234 75.8629 43.8799 82.6447 45.936C85.9954 47.1756 90.0864 47.7637 92.1595 51.0678C96.4536 58.8142 82.2385 65.909 76.599 68.4094C72.1568 70.2159 67.0928 70.6685 62.4602 69.3316C54.6334 67.339 42.1825 56.94 49.5946 48.6521C53.013 45.3183 56.7994 41.718 61.7324 42.3526ZM61.724 42.4838C56.8249 41.8069 52.9411 45.5764 49.8019 48.8298C46.1551 52.7601 47.8559 57.6592 51.105 61.2003C55.598 66.4844 62.5744 69.7293 69.5296 69.1243C76.5314 68.4855 82.6066 64.3099 88.0261 60.1046C91.546 57.3631 93.5259 52.1086 88.7156 49.5787C86.7822 48.4744 84.43 47.7467 82.3062 46.9514C75.681 44.5695 68.785 42.8603 61.724 42.4838Z" fill="#AC3022"/>
<path d="M76.5603 80.2582C76.6492 81.6289 76.8777 83.1181 77.8931 84.0446C78.7604 84.8315 79.9999 85.0177 81.1634 85.17C84.0952 85.5507 87.2047 85.9103 89.9039 84.6961C91.3466 84.0446 92.565 82.9869 93.7284 81.9081C99.2114 76.8355 104.331 70.1003 103.501 62.6755C103.197 59.9721 102.109 57.4083 100.726 55.0687C99.6049 53.1734 98.2468 51.3542 96.4065 50.1485C83.4945 41.6829 76.04 72.406 76.5603 80.2582Z" fill="#5A1E17"/>
<path fill-rule="evenodd" clip-rule="evenodd" d="M100.997 56.6238C105.605 64.3152 101.987 72.9669 96.2421 78.9406C93.471 81.9063 90.4757 85.3713 86.08 85.3798C84.007 85.4644 81.9043 85.2147 79.8525 84.8848C77.551 84.5886 76.633 82.3294 76.6245 80.2522C76.3876 68.5078 88.2757 34.4255 100.997 56.6238ZM79.8228 85.0117C81.8916 85.3755 83.9731 85.6886 86.0885 85.6505C90.5476 85.7944 93.8222 82.321 96.716 79.3806C105.241 70.6485 106.908 60.2622 98.2305 50.8617C83.4824 38.6393 76.0364 70.1705 76.4933 80.2606C76.5018 82.4056 77.4621 84.6902 79.8228 85.0117Z" fill="#AC3022"/>
<path d="M88.6339 43.4118L88.4689 43.4203C88.9597 43.2299 89.5519 43.2383 90.1104 43.3483C89.4885 42.773 88.5958 42.3668 87.8893 42.5276C87.1954 42.6799 86.73 43.3907 87.132 44.6895C86.3112 43.5387 84.8348 43.9491 85.0717 44.2452C85.0576 44.6147 85.0364 44.9532 85.0082 45.2606C84.9658 45.7556 84.8855 46.1787 84.7839 46.5933C84.6866 47.0502 84.564 47.2279 84.344 48.1502C84.2552 48.5944 84.1832 49.2882 84.4074 50.1005C84.6401 50.9297 85.0886 51.522 85.3763 51.8689C85.6767 52.2243 85.8417 52.3978 85.9093 52.5247C86.0081 52.6657 86.1082 52.811 86.2097 52.9605C86.4466 53.2735 86.9797 53.7431 87.572 54.1535C88.1643 54.5681 88.8116 54.9277 89.1627 55.2027C89.2671 55.2788 89.3742 55.3465 89.4842 55.4057C89.315 55.245 89.315 55.245 89.15 55.0843C89.7042 54.8347 90.1654 54.5385 90.5758 54.3439C90.525 54.1408 90.5334 53.9462 90.4107 53.6585L90.5843 53.8108C90.8085 53.2608 91.168 53.3116 91.3457 53.0662C91.3034 53.3666 91.443 53.4258 91.5657 53.4724L91.515 53.2735C91.9888 53.3962 92.5092 53.1043 92.9154 53.0662C92.9704 53.0578 93.0338 53.1593 93.0803 53.2523L93.4273 52.9435C93.4738 53.3454 93.8926 53.1847 93.7318 53.4893C93.9392 52.9435 94.6161 53.0239 94.908 52.237C95.898 51.5305 96.3168 50.3628 96.2448 49.4913C96.1941 48.5986 95.7541 47.816 95.0941 47.3506L94.9841 47.4564C94.5018 47.1771 93.7403 47.5156 93.643 47.0968C93.0973 47.3421 92.7038 47.4521 92.2808 48.1755C92.0735 48.2009 91.8576 48.569 91.6672 48.734C91.5826 49.1402 91.388 49.174 91.3838 49.504C91.2696 50.0751 91.4177 49.6055 91.295 50.0582L91.3415 49.927C91.3302 50.006 91.3147 50.0779 91.295 50.1428L91.2611 50.2316L91.3373 50.0751C91.4473 49.8692 91.5615 49.6887 91.6799 49.5336C91.8012 49.3813 91.907 49.2685 91.9972 49.1952L92.1072 49.1147L92.4754 48.9032L92.4161 48.9329C92.3103 48.9836 92.2426 48.9794 92.2976 48.9794C92.3484 48.9709 92.5134 48.9963 92.6403 49.0597C92.7108 49.0936 92.7602 49.1247 92.7884 49.1529L92.8054 49.174L92.7418 49.0767L92.6699 48.9498C92.5557 48.734 92.4245 48.4548 92.1961 47.7102L91.9972 47.0163C92.0029 47.0333 92.0043 47.053 92.0015 47.0756L91.9719 47.2067C91.955 47.3336 91.8619 47.0037 91.7984 46.8133C91.6969 47.0206 91.5108 46.8936 91.3289 47.1094L91.3373 47.1221C91.2316 47.1856 91.2104 46.7583 91.1216 46.8133C91.1046 46.9317 91.0877 46.9359 91.0707 46.9952C91.1088 46.7244 90.948 46.991 90.7111 47.2448C90.4784 47.5071 90.1654 47.7482 90.2077 47.5959C90.1851 47.6157 90.1654 47.6298 90.1485 47.6382C90.0808 47.4732 90.1188 47.1264 90.1907 46.8302C90.2302 46.6836 90.2626 46.5595 90.288 46.4579C90.2993 46.41 90.305 46.3747 90.305 46.3522C89.8734 46.9233 89.5139 47.3971 89.1754 47.8498C89.0273 48.0275 88.9004 48.1798 88.7481 48.3701C88.4223 48.7424 88.2912 48.8144 88.2235 48.8524C88.1685 48.8821 88.1855 48.8609 88.2574 48.8524C88.4943 48.8101 89.1796 49.0259 88.7312 48.9032C88.875 48.9371 89.0485 48.9836 89.3193 49.0809C89.6704 49.2121 89.9539 49.3178 90.2542 49.432L90.3304 49.4659C90.3388 49.4702 90.4023 49.5082 90.3685 49.487C90.3346 49.4645 90.3444 49.4701 90.398 49.504C90.4065 49.5096 90.4178 49.5181 90.4319 49.5294C90.4657 49.5548 90.4742 49.559 90.4996 49.5802C90.5165 49.6013 90.5165 49.5971 90.5334 49.614C90.6096 49.6986 90.3854 49.4405 90.4404 49.504L90.4785 49.5463C90.4926 49.5632 90.5208 49.5956 90.5631 49.6436V49.6478C90.5574 49.6393 90.5532 49.6337 90.5504 49.6309C90.5335 49.6055 90.4996 49.5294 90.4743 49.4363C90.4489 49.3517 90.4488 49.1994 90.4488 49.3559C90.4531 49.3221 90.4488 49.3602 90.4531 49.3179C90.4531 49.4152 90.4319 49.5251 90.4065 49.5886C90.4037 49.597 90.4008 49.6069 90.398 49.6182C90.3924 49.6295 90.3896 49.6352 90.3896 49.6352V49.6393C90.3867 49.6478 90.384 49.6535 90.3812 49.6563L90.3854 49.652C90.3897 49.6478 90.4192 49.6055 90.4234 49.597L90.4277 49.5928C90.4361 49.5843 90.439 49.5816 90.4361 49.5844L90.4488 49.5717L90.4446 49.5759L90.4573 49.5632L90.4615 49.559C90.4785 49.5421 90.4785 49.542 90.487 49.5336L90.4488 49.5717L90.4361 49.5886C90.4361 49.5886 90.3939 49.6352 90.487 49.5252C90.58 49.4236 90.4404 49.5844 90.47 49.5505C90.4446 49.5759 90.4911 49.5251 90.5123 49.5125C90.5123 49.5125 90.5179 49.5068 90.5292 49.4955C90.5588 49.4744 90.5335 49.4955 90.5546 49.4786C90.5208 49.5082 90.525 49.4998 90.5207 49.504C90.5588 49.4744 90.5504 49.4829 90.5588 49.4744C90.5927 49.449 90.5715 49.4659 90.6011 49.4447C90.5969 49.449 90.618 49.432 90.6265 49.4278C90.635 49.4222 90.6392 49.4194 90.6392 49.4194C90.6392 49.4194 90.5969 49.449 90.6096 49.4363C90.6476 49.4151 90.6434 49.4152 90.6434 49.4152C90.6406 49.418 90.6406 49.418 90.6434 49.4152C90.6519 49.4109 90.6392 49.4194 90.6773 49.3982C90.666 49.4039 90.6618 49.4053 90.6646 49.4025C90.6646 49.4025 90.6053 49.4405 90.6011 49.4447C90.6138 49.4363 90.6816 49.3982 90.6816 49.3982L90.4996 49.4913L90.508 49.487L90.5334 49.4744L90.5546 49.4659L90.6816 49.3982H90.6773L90.6646 49.4025C90.6646 49.4053 90.6604 49.4081 90.6519 49.4109C90.7365 49.3644 90.8296 49.3094 90.8804 49.2797C90.8677 49.2882 90.6519 49.4151 90.6053 49.4405L90.597 49.4447C90.6181 49.4321 90.6096 49.4405 90.6392 49.4194C90.6505 49.4137 90.6561 49.4109 90.6561 49.4109L90.6604 49.4067C90.6688 49.4025 90.6858 49.394 90.6773 49.3982C90.6773 49.3982 90.6731 49.401 90.6646 49.4067C90.635 49.4194 90.69 49.3897 90.7831 49.339C90.9481 49.2501 91.1723 49.1275 91.405 49.0006C91.8661 48.7594 92.3569 48.5436 92.3696 48.4505C92.0184 48.7086 91.9719 48.6536 91.9042 48.6409C92.0311 48.5563 92.2004 48.4209 92.2681 48.3194C92.2215 48.3067 92.1242 48.3913 92.0311 48.4505C92.103 48.3786 92.1453 48.2982 92.3315 48.1628C92.0946 48.3025 92.4372 48.019 92.3357 48.0444C92.2172 48.0952 92.2469 48.1206 92.1284 48.184C92.1242 48.1248 92.103 48.0529 92.1157 47.9852C92.2595 47.8287 92.488 47.5113 92.7588 47.3125C92.7968 47.4225 92.3442 47.6636 92.4626 47.689C92.7926 47.3209 92.6234 47.6636 92.9196 47.4309C93.0592 47.2617 93.0042 47.1983 92.9154 47.1898L92.8772 47.2448C92.7926 47.2448 92.6446 47.249 92.7757 47.0121C92.9069 46.8979 92.9703 46.7795 93.0337 46.7795L92.9915 46.6948C92.9449 46.7287 92.9026 46.7625 92.8942 46.809C92.7757 46.8852 92.7926 46.8048 92.8349 46.7075C92.928 46.5341 92.0269 47.0544 92.1199 46.9868C92.0776 46.9656 92.2088 46.7244 92.0692 46.8556C91.9677 46.9571 92.8603 46.6441 92.7757 46.6652C92.8222 46.5679 92.5346 46.6356 92.2892 46.7245C92.0396 46.8175 91.8322 46.9233 91.8957 46.7625C91.8534 46.7541 91.7942 46.771 91.7223 46.9402C91.7054 46.8302 91.8957 46.6314 91.9296 46.4537C91.9169 46.4791 91.8915 46.5383 91.883 46.5256L91.9338 46.2929C91.718 46.5087 91.7011 46.0983 91.4642 46.4198C91.5572 46.2421 91.7096 45.9206 91.8577 45.781L91.8365 45.8783C91.8704 45.8276 91.9592 45.7979 92.0269 45.6244C91.993 45.4806 91.9042 45.4806 91.7604 45.6244V45.4637C91.7519 45.4862 91.7449 45.5088 91.7392 45.5314C91.7434 45.4129 91.7519 45.396 91.7857 45.3325L91.8069 45.2945C91.8999 44.7572 91.3626 45.5187 91.2738 45.2225C91.2103 45.286 91.2484 45.3114 91.1723 45.4003C91.0454 45.1633 90.9438 44.9772 90.7534 44.8418C90.6773 45.0702 90.673 45.1633 90.7238 45.4129L90.597 45.3283C90.7577 44.7064 90.3304 44.7276 90.487 44.1099C90.4404 43.966 90.3261 43.9406 90.2331 44.0422C90.2288 44.2029 90.2246 44.4483 90.1104 44.4568C89.9327 44.2664 89.975 44.3383 89.8142 44.1522C89.755 43.9576 89.7973 43.8687 89.7719 43.708C89.5773 43.9957 89.5054 43.3018 89.2727 43.378C89.1373 43.4626 88.8666 43.5641 88.9554 43.9068C88.7777 43.9407 88.7016 43.6953 88.6339 43.4118Z" fill="#AC3022"/>
<path d="M96.9442 88.8389L147.962 213.779L155.395 274.13L126.17 412.642H117.272L142.542 279.663L132.909 219.325L89.8578 97.1437L96.9442 88.8389Z" fill="#AC3022"/>
<path d="M150.927 412.642L177.026 266.837L177.914 206.973L117.276 60.6719L107.787 76.1265L160.789 211.563L167.951 266.837L141.793 412.642H150.927Z" fill="#AC3022"/>
<path d="M130.669 35.3466L194.34 206.824L191.654 259.657L161.51 412.642H172.942L208.179 205.593L153.303 28.6494L130.669 35.3466Z" fill="#AC3022"/>
<path d="M180.921 412.642L215.726 202.928L185.735 70.1057L170.132 40.8591L162.212 26.0137L181.995 39.2768L196.498 67.1062L220.651 196.886L185.435 412.642H180.921Z" fill="#AC3022"/>
<path d="M132.385 274.285L74.6783 318.445L37.2665 316.283L24.2445 297.14L17.9916 226.839L25.666 199.149L32.1982 195.489L24.7903 228.239L35.3458 306.756L70.8158 315.585L132.105 272.411L132.385 274.285Z" fill="#AC3022"/>
<path d="M47.9606 186.655L34.0459 221.486L44.8807 299.229L68.3609 306.755L131.88 270.647L131.635 268.984L68.3609 299.229L48.1932 291L47.8929 219.324L57.0227 189.151L47.9606 186.655Z" fill="#AC3022"/>
<path d="M70.7631 192.938L58.9596 219.325L57.5295 285.797L70.1243 289.838L131.274 266.594L130.936 264.318L67.1882 282.561C67.1882 282.561 70.9027 226.187 70.9027 225.282C70.9027 224.381 79.0171 208.567 79.0171 208.567L70.7631 192.938Z" fill="#AC3022"/>
<path d="M216.778 154.116L250.28 130.145L254.494 28.6508L253.445 7.50587L265.058 5.08594L268.341 26.0151L257.151 134.667L217.34 157.517L216.778 154.116Z" fill="#AC3022"/>
<path d="M220.758 178.114L278.139 151.418L299.004 28.1915L290.907 12.3477L293.572 30.5903L272.956 147.446L219.95 173.232L220.758 178.114Z" fill="#AC3022"/>
<path d="M219.157 168.478L266.557 143.923L287.33 28.6499L286.014 9.74305L274.6 3.09668L277.015 26.9069L262.491 138.804L218.374 163.756L219.157 168.478Z" fill="#AC3022"/>
<path d="M182.41 146.707C181.479 148.784 180.354 150.68 178.975 152.435C178.653 152.863 177.959 153.688 177.6 154.081C176.661 155.101 175.332 155.807 174.558 156.975C173.746 158.13 172.967 159.336 172.32 161.129L172.544 161.493C174.482 161.684 176.119 161.011 177.507 160.067C179.229 158.87 179.982 156.713 180.955 154.944C181.433 153.967 181.924 152.567 182.207 151.517C182.605 149.956 182.846 148.37 182.829 146.796L182.41 146.707Z" fill="#5A1E17"/>
<path d="M188.254 171.242C187.018 169.038 185.406 167.049 183.562 165.319C182.644 164.46 181.853 163.305 180.575 162.937C179.331 162.552 177.973 162.387 176.382 162.971L176.205 163.36C176.818 164.93 177.613 165.852 178.472 166.656C179.327 167.493 180.571 167.616 181.607 168.124C182.668 168.64 183.72 169.179 184.763 169.74C185.829 170.298 186.87 170.92 187.949 171.542L188.254 171.242Z" fill="#5A1E17"/>
<path d="M189.597 157.811C187.249 157.43 184.842 157.43 182.481 157.731C181.31 157.887 179.994 157.739 178.966 158.454C177.95 159.14 177.024 160.041 176.503 161.598L176.685 161.987C178.213 162.566 179.376 162.575 180.485 162.448C181.618 162.351 182.448 161.483 183.429 161.014C184.436 160.534 185.451 160.066 186.475 159.609C187.507 159.131 188.569 158.704 189.648 158.234L189.597 157.811Z" fill="#5A1E17"/>
<path d="M168.464 220.511C169.365 218.163 171.074 216.128 173.117 214.648C174.15 213.903 175.157 212.676 176.587 212.828C178.211 212.976 179.548 213.708 180.58 215.24L180.601 215.887C179.764 217.368 179.116 218.29 178.021 219.141C177.623 219.437 177.2 219.534 176.701 219.475C175.165 219.2 173.663 219.64 172.153 219.957C171.099 220.198 170.05 220.554 168.925 220.964L168.464 220.511Z" fill="#5A1E17"/>
<path d="M167.934 207.078C170.37 208.026 172.697 208.741 175.198 209.312C176.327 209.583 177.656 209.193 178.62 210.006C179.847 210.97 180.617 212.024 181.413 213.686L181.302 214.325C179.902 215.692 178.362 216.208 176.619 216.161C174.406 215.933 172.989 213.796 171.276 212.591C169.77 211.106 168.424 209.443 167.494 207.556L167.934 207.078Z" fill="#5A1E17"/>
<path d="M196.568 78.2708C196.784 81.0969 196.229 83.9906 195.142 86.6179C194.592 87.9379 194.326 89.6005 193.001 90.4255C191.559 91.3689 189.981 91.7624 188.111 91.3436L187.726 90.874C187.662 89.0844 187.87 87.7983 188.47 86.3852C188.923 85.2091 190.235 84.8199 191.064 83.9822C191.938 83.1107 192.777 82.1997 193.581 81.2492C194.419 80.2846 195.184 79.2312 195.984 78.1143L196.568 78.2708Z" fill="#5A1E17"/>
<path d="M156.181 60.6719C158.698 61.8057 161.106 62.8337 163.64 63.8195C164.816 64.2891 166.288 64.1833 167.198 65.1944C168.332 66.3706 169.004 67.6017 169.478 69.4251L169.237 70.0132C167.536 70.9947 165.933 71.1766 164.22 70.8128C162.066 70.1909 160.958 67.9021 159.337 66.506C157.941 64.8476 156.681 63.0833 155.741 61.1288L156.181 60.6719Z" fill="#5A1E17"/>
<path d="M150.463 257.203C150.767 260.435 148.99 263.503 147.184 266.062C146.367 267.213 145.339 269.019 144.015 269.65C142.598 270.432 140.982 270.961 139.044 270.678L138.811 270.293C139.429 268.457 140.271 267.264 141.168 266.155C142.052 265.013 143.448 264.509 144.535 263.613C146.706 261.755 148.961 259.923 150.018 257.152L150.463 257.203Z" fill="#5A1E17"/>
<path d="M153.419 273.706C151.511 272.911 149.62 272.407 147.623 272.174C147.149 272.111 146.202 272.035 145.723 272.022C144.484 271.98 143.27 272.479 142.039 272.191C140.812 271.95 139.581 271.624 137.948 270.787L137.825 270.351C138.84 268.773 140.346 268.033 141.869 267.686C143.76 267.267 145.69 268.295 147.462 268.862C148.402 269.221 149.603 269.873 150.445 270.423C151.672 271.256 152.789 272.221 153.69 273.346L153.419 273.706Z" fill="#5A1E17"/>
<path d="M134.873 123.352C137.391 126.44 141.253 127.751 145.001 128.771C146.728 129.207 148.318 128.297 149.456 126.965C150.057 126.25 150.565 125.365 150.814 124.1L150.544 123.385C148.932 122.154 147.798 121.439 146.203 120.987C145.002 120.606 144.041 121.689 142.929 121.926C141.738 122.202 140.524 122.407 139.286 122.539C137.995 122.696 136.659 122.704 135.216 122.666L134.873 123.352Z" fill="#5A1E17"/>
<path d="M198.727 97.4666C197.581 94.8055 195.135 93.1133 192.72 91.6537C191.594 91.0022 190.3 91.3195 189.238 92.026C188.675 92.4067 188.142 92.9229 187.715 93.7605L187.761 94.3148C188.646 95.4994 189.297 96.2271 190.321 96.8617C191.087 97.3651 191.975 96.8024 192.8 96.8574C193.691 96.8997 194.583 96.9984 195.474 97.1535C196.409 97.3016 197.348 97.5639 198.351 97.8812L198.727 97.4666Z" fill="#5A1E17"/>
<path d="M161.467 339.927C161.115 343.274 158.996 345.99 156.821 348.444C155.802 349.552 154.258 349.649 152.84 349.231C152.083 349.002 151.313 348.617 150.552 347.839L150.412 347.204C150.983 345.592 151.448 344.56 152.366 343.502C153.039 342.677 154.22 342.999 155.116 342.652C156.087 342.296 157.04 341.878 157.976 341.395C158.958 340.909 159.906 340.295 160.908 339.602L161.467 339.927Z" fill="#5A1E17"/>
<path d="M176.028 360.797C177.339 362.388 178.731 363.771 180.313 365.049C181.054 365.649 182.052 365.916 182.602 366.737C183.165 367.528 183.664 368.399 183.994 369.834L183.799 370.164C182.357 370.553 181.164 370.231 180.14 369.707C179.078 369.182 178.604 368.023 177.999 367.092C176.802 365.239 175.96 363.124 175.672 360.949L176.028 360.797Z" fill="#5A1E17"/>
<path d="M128.129 187.334L135.829 188.345C137.069 188.51 138.414 188.235 139.565 188.857C140.707 189.437 141.815 190.181 142.843 191.67L142.763 192.127C141.265 193.16 139.852 193.384 138.494 193.371C136.464 193.236 134.831 191.751 132.986 191.023C131.23 190.05 129.529 189.005 127.951 187.761L128.129 187.334Z" fill="#5A1E17"/>
<path d="M199.089 246.542C198.078 248.214 196.88 249.889 195.755 251.459C195.027 252.368 194.067 253.616 193.538 254.648C192.18 256.607 189.726 256.641 187.399 256.176L186.964 255.698C186.744 253.819 187.061 252.389 187.92 250.976C188.622 249.754 190.149 249.58 191.287 248.984L193.052 248.108C194.85 247.334 196.8 246.538 198.7 246.026L199.089 246.542Z" fill="#5A1E17"/>
<path d="M262.265 31.3887C263.538 32.1544 265.167 33.339 266.398 34.1809C266.724 34.4009 267.1 34.5617 267.46 34.714C268.23 35.0651 268.526 35.7378 268.801 36.5374C268.949 36.9689 269.08 37.4597 269.156 38.145L268.966 38.4877C267.853 38.9742 266.796 38.8939 265.802 38.4454C264.905 38.0773 264.596 37.0789 264.126 36.3343C263.652 35.5982 263.25 34.8324 262.891 34.0413C262.548 33.2501 262.227 32.4632 261.956 31.634L262.265 31.3887Z" fill="#5A1E17"/>
<path d="M260.479 52.9717C259.98 50.7971 261.727 48.7706 263.073 47.2984C263.779 46.558 264.384 45.5553 265.446 45.2803C266.601 44.9546 267.739 44.9799 268.915 45.568L269.059 45.9319C268.653 47.1122 268.137 47.9118 267.367 48.6902C266.737 49.3714 265.747 49.4052 264.955 49.8029C263.441 50.649 261.605 51.2498 260.873 52.9801L260.479 52.9717Z" fill="#5A1E17"/>
<path d="M258.575 43.5178C259.742 42.1344 261.342 41.1105 263.055 40.4971C263.918 40.1925 264.836 39.6129 265.796 39.909C266.863 40.2179 267.717 40.8356 268.259 41.9398L268.178 42.3248C267.332 43.0821 266.651 43.5136 265.733 43.8224C265.001 44.0974 264.286 43.6278 263.558 43.5897C262.791 43.5446 262.018 43.5404 261.24 43.577C260.44 43.6067 259.628 43.7167 258.769 43.8563L258.575 43.5178Z" fill="#5A1E17"/>
<path d="M41.5754 223.375C41.2327 225.689 40.3146 227.809 39.0327 229.573C38.3854 230.462 37.8778 231.621 36.7524 231.976C35.6651 232.34 34.4043 232.45 32.8644 231.752L32.6528 231.354C33.004 229.869 33.5455 229.019 34.1505 228.27C34.7428 227.483 35.8132 227.39 36.6086 226.882C37.4265 226.364 38.2134 225.798 38.9693 225.186C39.7477 224.573 40.4711 223.87 41.2072 223.13L41.5754 223.375Z" fill="#5A1E17"/>
<path d="M45.492 233.85C43.0086 234.188 40.4871 234.226 38.1433 234.912C36.4891 235.237 35.148 234.603 33.3034 233.245L33.1849 232.826C33.8534 231.557 34.7969 231.024 35.7911 230.723C37.3268 230.376 39.0656 231.32 40.6774 231.574C42.3062 232.056 43.9182 232.635 45.4878 233.435L45.492 233.85Z" fill="#5A1E17"/>
<path d="M274.697 89.7533C273.597 90.921 272.281 91.7164 270.932 92.1479C270.246 92.3595 269.527 92.7952 268.816 92.4863C268.123 92.1987 267.441 91.691 266.942 90.591L266.997 90.2695C267.771 89.5799 268.385 89.3387 268.99 89.1822C269.603 89.0045 270.179 89.4361 270.784 89.508C271.404 89.5813 272.027 89.6137 272.654 89.6053C273.292 89.6095 273.94 89.5376 274.608 89.4445L274.697 89.7533Z" fill="#5A1E17"/>
<path d="M272.48 97.5256C271.092 96.5949 269.806 95.4737 268.346 94.8011C267.382 94.2341 266.959 93.2653 266.57 91.6492L266.68 91.3573C267.526 90.9343 268.211 91.0569 268.837 91.3362C269.751 91.8311 270.25 93.1638 270.961 94.0396C271.591 95.0549 272.171 96.121 272.645 97.2887L272.48 97.5256Z" fill="#5A1E17"/>
<path d="M278.968 121.844C280.149 122.512 281.287 123.054 282.526 123.532C283.085 123.752 283.8 123.646 284.231 124.137C284.781 124.729 285.098 125.338 285.373 126.261L285.268 126.586C284.443 127.196 283.609 127.356 282.721 127.208C281.6 126.929 281.041 125.711 280.254 124.958C279.598 124.078 279.036 123.113 278.706 122.06L278.968 121.844Z" fill="#5A1E17"/>
<path d="M281.825 18.9199C280.509 19.5291 279.236 19.9818 277.857 20.3203C277.235 20.4811 276.456 20.168 275.961 20.7222C275.335 21.3822 274.967 22.1141 274.633 23.2818L274.739 23.7429C275.623 24.7625 276.533 25.1771 277.518 25.1898C278.758 25.0883 279.418 23.5948 280.306 22.7783C281.059 21.7587 281.711 20.5995 282.109 19.2753L281.825 18.9199Z" fill="#5A1E17"/>
<path d="M255.336 144.474C254.862 144.419 254.371 144.749 254.079 145.096C252.945 146.5 252.844 148.226 252.848 149.919C252.882 150.854 253.618 151.548 254.507 151.861C254.963 152.03 255.505 152.102 256.148 151.962L256.423 151.691C256.588 151.074 256.664 150.651 256.723 150.274C256.808 149.631 256.956 149.119 256.495 148.671C256.046 148.303 255.788 147.803 255.606 147.262C255.395 146.754 255.226 146.098 255.183 145.565C255.179 145.303 255.183 145.049 255.412 144.842L255.336 144.474Z" fill="#5A1E17"/>
<path d="M62.4835 277.287C62.8431 279.821 62.5301 282.135 61.7221 284.052C61.3117 285.016 61.1339 286.281 60.0466 286.653C59.0017 287.038 57.6902 287.14 55.8287 286.353L55.4776 285.913C55.3845 284.288 55.6934 283.362 56.1037 282.55C56.4845 281.699 57.5971 281.61 58.2867 281.069C58.9947 280.51 59.656 279.9 60.2709 279.237C60.9097 278.577 61.4597 277.816 62.0097 277.012L62.4835 277.287Z" fill="#5A1E17"/>
<path d="M67.8568 236.885C66.8584 239.355 65.2465 241.598 63.3046 243.442C62.3273 244.369 61.4388 245.596 60.0427 245.93C58.6889 246.277 57.2039 246.344 55.6005 245.532L55.4609 245.096C56.2521 243.51 57.0982 242.621 57.9951 241.843C58.8835 241.022 60.1442 240.963 61.1976 240.451C62.2779 239.927 63.3355 239.351 64.3707 238.725C65.4283 238.095 66.448 237.371 67.4929 236.605L67.8568 236.885Z" fill="#5A1E17"/>
<path d="M25.9826 283.299C28.6564 282.008 31.144 280.46 33.9532 279.529C35.8189 278.751 36.6355 277.405 37.3801 275.176L37.1728 274.77C35.5398 274.186 34.2113 274.359 33.0098 274.744C31.2498 275.43 30.2852 277.27 28.9103 278.48C27.7003 279.885 26.5749 281.353 25.6653 282.969L25.9826 283.299Z" fill="#5A1E17"/>
</g>
</svg>
