<svg width="231" height="221" viewBox="0 0 231 221" fill="none" xmlns="http://www.w3.org/2000/svg">
<g opacity="0.8">
<path fill-rule="evenodd" clip-rule="evenodd" d="M57.376 125.358C58.4288 123.243 59.2839 121.951 60.1189 120.761C60.2211 120.616 60.3246 120.468 60.4295 120.318C60.4806 120.248 60.5331 120.175 60.5869 120.1C60.6111 120.069 60.6393 120.022 60.6635 119.999L60.728 119.929C60.9001 119.74 61.0749 119.539 61.2524 119.326C61.6114 118.902 61.9866 118.416 62.386 117.817C63.9914 115.418 66.0205 111.167 69.1628 101.467L68.1221 102.595C69.5702 96.9288 72.406 89.4733 75.0038 82.4262C76.3027 78.9027 77.5411 75.4803 78.5213 72.4312C79.0094 70.9067 79.4289 69.4755 79.7638 68.1726C79.874 67.7526 79.9829 67.343 80.0904 66.9437C80.1953 66.5263 80.2961 66.1218 80.393 65.7303C80.5839 64.9343 80.7506 64.1669 80.8932 63.4279C81.1392 62.7473 81.3732 62.0862 81.5386 61.6273C84.0597 61.5417 86.2461 61.4717 88.1259 61.425C88.497 61.4173 88.8546 61.4108 89.1989 61.4056C89.5162 61.4004 89.8201 61.3965 90.1105 61.3939C90.6968 61.3913 91.2346 61.3887 91.724 61.3861C93.6925 61.3939 94.935 61.4484 95.657 61.5456C97.1052 61.7362 96.4759 62.0862 95.419 62.479C93.3053 63.2685 89.4772 64.2524 97.0931 64.5635C101.559 63.6885 112.688 62.7279 122.845 61.7323C127.924 61.2306 132.764 60.7211 136.403 60.2077C137.317 60.0807 138.148 59.9524 138.896 59.8227C139.269 59.7579 139.619 59.6931 139.945 59.6283C140.028 59.6127 140.108 59.5971 140.186 59.5816C140.263 59.5621 140.336 59.5466 140.441 59.531C140.642 59.4947 140.835 59.4597 141.017 59.426C142.49 59.1499 143.518 58.8777 143.825 58.6093L118.335 59.776C122.296 59.5427 119.223 59.2627 120.828 59.0138C123.7 59.2121 127.347 59.0955 131.369 58.796C133.377 58.6443 135.483 58.4499 137.629 58.2243C138.164 58.1673 138.703 58.1089 139.247 58.0493C139.516 58.0208 139.786 57.9909 140.057 57.9598L140.263 57.9365L140.578 57.9093L141.207 57.8509C142.821 57.7032 144.435 57.5554 146.052 57.4076C143.244 53.6663 139.989 49.1043 136.552 44.1885C142.474 45.6119 149.049 47.2531 155.555 48.8749C158.835 49.6916 162.078 50.4966 165.212 51.2744C166.732 51.6452 168.222 52.0095 169.682 52.3673C171.107 52.7095 172.492 53.0427 173.837 53.3668C174.506 54.7954 175.146 56.1631 175.757 57.4698C175.886 57.7395 176.014 58.0065 176.14 58.271C176.039 58.1232 175.918 57.9326 175.769 57.6643L176.301 58.9788L176.435 59.3055L176.515 59.5077L176.648 59.8538L177.173 61.2422L179.282 66.792L179.807 68.1804L180.073 68.8727L180.202 69.2188L180.444 69.8177L180.263 69.4483L180.174 69.2694L180.121 69.1683L179.912 68.7716L179.492 67.9743L178.661 66.3798C178.113 65.3116 177.573 64.2408 177.044 63.1674C176.511 62.094 175.987 61.0167 175.471 59.9355C174.626 58.0843 173.779 56.2279 172.929 54.3663C170.208 53.6896 167.475 53.0103 164.732 52.3284C161.874 51.5998 158.999 50.8674 156.108 50.131C150.356 48.6493 144.531 47.152 138.593 45.6236C141.43 49.829 144.332 54.1044 147.298 58.4499C148.057 59.3495 148.813 60.2453 149.569 61.1372L149.973 61.6195L150.178 61.8567L150.279 61.9773L150.348 62.0551C150.523 62.2469 150.696 62.4388 150.868 62.6307C151.215 63.0144 151.561 63.3955 151.905 63.7741C153.28 65.2908 154.62 66.7687 155.894 68.1688C158.432 70.9728 160.682 73.4891 162.328 75.4842C165.62 79.4744 166.499 81.3801 162.437 79.3111C160.231 76.9971 155.301 70.16 153.256 68.5654C152.845 70.3467 163.308 82.9902 170.622 92.8763C171.88 94.266 173.162 95.6804 174.466 97.1193C173.409 94.371 172.355 91.6331 171.304 88.9055C170.032 85.6335 168.765 82.377 167.504 79.1361C164.494 74.8503 161.511 70.6007 158.553 66.3875C155.371 61.8839 152.221 57.4231 149.101 53.0051C156.115 54.6359 163.014 56.2408 169.799 57.8198C170.393 59.0851 170.985 60.3452 171.574 61.6C172.098 62.7046 172.621 63.8052 173.143 64.9019C174.203 67.1265 175.254 69.3342 176.297 71.5251C177.9 76.7883 179.472 81.9479 181.013 87.0037C182.562 92.0207 184.08 96.9365 185.567 101.751C184.906 100.382 183.518 96.5943 184.389 101.156C185.495 105.434 186.636 109.253 187.77 112.695C188.337 114.412 188.9 116.039 189.46 117.576C189.6 117.962 189.738 118.344 189.875 118.719C190.053 119.235 190.229 119.745 190.404 120.248C190.767 121.29 191.12 122.307 191.465 123.297C190.838 124.225 190.228 125.127 189.633 126.004C189.327 126.46 189.024 126.91 188.726 127.353C188.529 127.672 188.337 127.986 188.149 128.294C187.399 129.529 186.687 130.701 186.015 131.81C185.996 131.841 185.977 131.871 185.958 131.9C177.988 140.444 167.83 155.351 159.565 165.918C159.245 166.257 158.928 166.594 158.613 166.929L158.375 167.178L158.012 167.582C157.765 167.862 157.517 168.14 157.27 168.415C156.307 169.493 155.358 170.556 154.422 171.604C153.12 171.495 151.83 171.387 150.549 171.281C149.923 171.229 149.299 171.177 148.678 171.125L148.448 171.106L148.29 171.086L147.996 171.055L147.415 170.989C145.858 170.822 144.309 170.655 142.732 170.484C139.581 170.157 136.33 169.857 132.756 169.601C125.612 169.091 117.174 168.749 105.649 168.706L106.577 167.785L100.336 167.423L97.1173 167.236L93.1561 167.026L90.0661 162.869L87.5449 159.435C90.8325 163.405 89.8644 161.496 89.3682 160.524C89.9451 161.037 90.3565 161.531 90.889 162.27C91.1633 162.663 91.482 163.11 91.8693 163.658C92.2848 164.242 92.7809 164.938 93.398 165.786C93.8256 165.743 93.7288 164.957 93.4021 163.864C93.2407 163.316 93.0189 162.69 92.7729 162.033C92.4824 161.317 92.1073 160.489 91.6716 159.59C90.5583 157.299 89.0334 154.507 87.2666 151.528L64.1084 132.16C72.9627 145.119 54.5079 120.893 65.3186 136.52C63.4025 134.194 62.0149 132.366 60.9943 130.881C60.8249 130.616 60.2964 129.885 59.9334 129.364C59.5542 128.812 59.2073 128.298 58.8927 127.824C58.2675 126.871 57.7753 126.062 57.376 125.358ZM64.1084 132.16L82.0509 78.3077C78.4931 84.118 71.0708 112.326 67.6783 117.137C67.279 118.299 66.912 119.264 66.5651 120.065C66.393 120.462 66.2275 120.821 66.0688 121.142C65.9881 121.301 65.9089 121.451 65.8309 121.594C65.7865 121.675 65.7623 121.71 65.73 121.761C65.6951 121.81 65.6628 121.857 65.6332 121.901C65.125 122.628 64.6046 123.075 64.0761 123.375C63.5477 123.67 63.0193 123.799 62.4666 123.95C61.918 124.106 61.3493 124.281 60.6797 124.845C60.5385 125.234 60.5869 125.833 61.0064 126.84C61.3775 127.781 62.4102 129.512 63.0919 130.682C63.4657 131.219 63.8045 131.712 64.1084 132.16ZM114.378 133.794C115.798 133.339 117.186 132.86 118.513 132.382C119.84 131.904 121.106 131.421 122.264 130.966C124.612 130.025 126.859 129.123 129.089 128.228C130.24 127.772 131.399 127.331 132.567 126.906C132.263 126.779 131.955 126.651 131.643 126.521C130.993 127.373 130.889 127.373 131.062 126.933C131.121 126.788 131.204 126.604 131.312 126.381C128.783 125.335 126.02 124.223 122.893 123.036C120.852 122.262 118.755 121.489 116.689 120.765C116.173 120.584 115.659 120.405 115.149 120.228C114.654 120.063 114.163 119.897 113.676 119.731C113.458 119.661 113.242 119.591 113.027 119.521C114.088 119.82 114.443 119.832 114.749 119.808C115.173 119.762 115.382 119.602 117.528 120.182C116.057 119.707 114.667 119.257 113.358 118.832C112.244 118.467 111.199 118.115 110.223 117.778C110.288 116.972 110.355 116.205 110.425 115.476C110.46 115.113 110.495 114.759 110.53 114.414C110.567 114.062 110.604 113.719 110.639 113.387C110.813 111.759 110.994 110.301 111.179 109.012C111.546 106.43 111.93 104.481 112.313 103.004C113.071 100.048 113.813 98.9705 114.366 98.4377C114.361 98.6115 114.355 98.7852 114.35 98.9589L129.174 110.968L136.645 106.025L123.636 88.2288L99.4408 99.0756L98.6179 102.42L99.7232 104.758C99.8079 105.076 99.832 105.294 99.8602 105.539C99.8737 105.661 99.8939 105.796 99.9208 105.944C99.9477 106.076 99.9813 106.238 100.022 106.43C100.171 107.079 100.57 108.18 101.68 110.478C104.217 115.176 103.64 113.298 102.587 110.296C102.325 109.545 102.035 108.724 101.748 107.919C101.608 107.512 101.472 107.117 101.341 106.733C101.209 106.334 101.084 105.958 100.966 105.605C100.429 103.991 100.187 102.976 100.55 103.179L113.636 129.691C114.265 131.254 113.898 130.791 113.361 129.959C112.829 129.138 112.111 127.929 112.24 128.473C112.918 130.321 113.652 132.125 114.378 133.794ZM168.46 113.574C167.411 116.246 166.269 119.011 164.999 121.881C164.364 123.315 163.696 124.776 162.994 126.264C162.641 127.008 162.281 127.76 161.913 128.52C161.3 129.744 160.68 130.983 160.053 132.238C159.115 132.749 158.167 133.265 157.209 133.786C156.854 133.975 156.498 134.166 156.14 134.358C155.861 134.505 155.578 134.653 155.293 134.801C154.156 135.397 152.99 135.992 151.796 136.586C145.507 139.62 148.69 136.921 142.409 139.946C138.642 142.202 135.273 144.17 132.224 145.916C130.699 146.79 129.248 147.61 127.871 148.378C126.89 148.92 125.934 149.449 125.003 149.965C123.992 150.517 123.006 151.056 122.046 151.582C120.667 150.854 119.332 150.149 118.041 149.467C117.455 149.153 116.878 148.845 116.31 148.541C115.904 148.321 115.505 148.104 115.112 147.892C113.543 147.028 112.071 146.204 110.655 145.395C107.823 143.785 105.229 142.256 102.583 140.693C99.9409 139.133 97.2544 137.539 94.2331 135.804C92.7244 134.933 91.1311 134.031 89.4207 133.074C89.2056 132.955 88.9891 132.834 88.7712 132.713C88.4916 132.56 88.2079 132.405 87.9202 132.25C87.3285 131.928 86.7275 131.602 86.117 131.27C85.4474 130.909 84.7643 130.541 84.0678 130.165C86.1372 134.148 88.9124 137.757 90.171 142.708L90.9657 145.838L82.4987 129.321C82.4476 129.293 82.3951 129.264 82.3413 129.236C82.3521 129.184 82.3642 129.132 82.3777 129.08L78.1462 120.827C78.0897 120.612 78.0238 120.355 77.9485 120.057C77.8679 119.758 77.7669 119.412 77.6661 119.077C77.4604 118.389 77.1982 117.623 76.8392 116.802C76.9898 116.481 77.135 116.145 77.2748 115.795C76.8997 116.328 76.7464 116.355 76.7746 115.958C76.8029 115.565 77.0207 114.733 77.3635 113.601C78.0372 111.373 79.1304 108.153 80.038 105.29C81.8533 99.5656 82.9263 95.2837 78.4285 103.276L72.4786 116.853L80.7036 134.214L95.3747 153.348L126.088 157.389L128.154 158.112L95.4029 153.379L98.0652 156.852L141.223 160.772L151.679 151.376C135.031 164.774 144.45 154.204 147.298 149.996L137.512 158.396L121.901 155.934L137.226 157.451L146.362 148.615C146.366 148.125 145.011 148.977 143.018 150.439C142.022 151.17 140.864 152.053 139.638 153.002C139.331 153.238 139.021 153.478 138.706 153.722C138.533 153.858 138.432 153.928 138.311 154.017L137.956 154.282C137.493 154.621 137.032 154.96 136.572 155.297C135.806 155.118 135.076 154.939 134.41 154.764C134.329 154.743 134.247 154.721 134.164 154.698C134.046 154.672 133.927 154.645 133.809 154.616C133.575 154.559 133.344 154.503 133.115 154.449C132.661 154.34 132.225 154.231 131.808 154.122L123.987 153.154C125.265 152.769 127.141 152.629 129.493 152.683C130.673 152.712 131.967 152.786 133.373 152.905C133.726 152.938 134.083 152.971 134.446 153.002C134.605 153.007 134.766 153.012 134.93 153.018C135.253 153.031 135.576 153.05 135.899 153.076C136.192 152.78 136.492 152.489 136.798 152.201L136.915 152.096L137.206 151.839C137.402 151.665 137.601 151.49 137.803 151.314C138.203 150.964 138.611 150.609 139.025 150.249C140.679 148.813 142.441 147.328 144.277 145.795C147.948 142.735 151.925 139.507 155.991 136.217C160.057 132.926 164.212 129.574 168.242 126.264C170.259 124.608 172.243 122.962 174.168 121.345C174.99 120.647 175.804 119.959 176.608 119.28C176.807 119.106 177.006 118.933 177.205 118.762C176.463 119.544 176.326 119.832 176.616 119.77C176.983 119.7 178.088 119.027 179.307 118.264C179.17 117.331 179.008 116.312 179.101 115.993C179.198 115.686 179.553 116.083 180.553 118.253L177.536 109.627C177.998 110.856 178.551 112.258 179.194 113.835C179.5 114.574 179.823 115.354 180.162 116.176C180.503 116.99 180.864 117.846 181.243 118.743C179.597 120.298 177.794 122.003 175.834 123.857C173.76 125.796 171.533 127.878 169.153 130.103C164.385 134.537 158.988 139.472 153.006 144.745C157.962 140.548 162.894 136.34 167.802 132.121C170.252 130.008 172.698 127.899 175.14 125.794C177.705 123.567 180.265 121.345 182.82 119.128C181.5 115.63 180.185 112.142 178.875 108.662C177.608 105.344 176.347 102.036 175.091 98.7411C174.919 98.2951 174.748 97.8505 174.579 97.4071C173.987 98.9109 173.388 100.439 172.78 101.992C172.697 102.202 172.613 102.412 172.53 102.622L172.364 103.085C172.257 103.389 172.148 103.692 172.038 103.995C171.817 104.607 171.595 105.224 171.372 105.846C170.468 108.332 169.508 110.906 168.46 113.574ZM105.064 132.277C106.497 133.145 107.92 134.015 109.332 134.887C109.004 134.199 108.676 133.514 108.347 132.829C107.804 131.675 107.258 130.519 106.71 129.36C106.382 128.691 106.054 128.021 105.725 127.349C104.41 124.658 103.108 121.928 101.809 119.124C100.51 116.324 99.2189 113.454 97.9321 110.49C97.6551 109.852 97.3782 109.212 97.1012 108.569L93.2932 124.013L105.064 132.277ZM150.437 104.544L149.601 94.5408C149.412 96.2715 149.218 97.8894 149.017 99.3284C148.996 97.2088 148.928 94.7159 148.851 91.9546C148.814 90.5571 148.775 89.0987 148.734 87.5793C148.699 86.0859 148.664 84.5445 148.629 82.9552C139.493 81.7457 129.049 80.1395 119.687 77.736C120.735 77.5299 117.617 76.682 113.329 75.6981C111.183 75.2081 108.751 74.683 106.395 74.1852C105.217 73.9402 104.059 73.6991 102.974 73.4735C102.428 73.362 101.903 73.2544 101.397 73.1507C100.795 73.0289 100.222 72.9135 99.6787 72.8046C97.0164 72.5946 95.9918 72.7151 95.5521 72.964C95.1246 73.2129 95.2697 73.5863 95.2092 73.9246C95.3988 74.9125 95.3626 76.4292 94.4549 79.6611C93.144 83.8147 90.3767 91.0095 84.927 103.793C84.0879 105.454 83.0513 107.694 81.946 110.148C80.99 112.279 79.9534 114.589 78.9691 116.775C79.5056 117.969 80.0259 119.124 80.4978 120.174C81.1029 121.543 81.6354 122.787 82.0428 123.826C82.8577 125.903 83.1844 127.171 82.656 127.007C82.7017 127.124 82.7475 127.239 82.7932 127.353C83.0594 126.249 83.3323 125.111 83.6119 123.939C83.9669 122.427 84.338 120.839 84.7253 119.174C85.4312 116.098 86.1815 112.722 86.9762 108.989C87.9645 105.714 88.9245 102.335 89.8644 98.8733C90.8244 95.3303 91.6554 92.1918 92.8091 87.5365C94.9094 86.738 97.0231 85.9342 99.1503 85.1253C101.03 84.4045 102.917 83.6811 104.81 82.9552C108.775 81.4151 112.769 79.8711 116.75 78.3232C118.786 79.5211 120.816 80.715 122.841 81.9051C123.833 81.4254 124.815 80.9497 125.786 80.4778C127.347 82.4768 128.88 84.433 130.421 86.4009C131.192 86.8624 131.963 87.3227 132.732 87.7816C135.263 89.3061 137.754 90.8254 140.207 92.3396C141.481 93.1304 142.745 93.916 143.999 94.6964C145.287 95.5028 146.525 96.2871 147.714 97.0493C146.806 98.8694 145.943 100.55 145.112 102.129C145.472 101.711 145.654 101.62 145.656 101.856C145.662 101.973 145.625 102.165 145.547 102.432C145.51 102.564 145.463 102.714 145.406 102.883C145.35 103.041 145.289 103.215 145.225 103.404C145.061 103.85 144.859 104.366 144.62 104.952C144.811 105.216 145.004 105.481 145.201 105.745C144.292 107.166 143.352 108.636 142.381 110.156C142.333 110.233 142.283 110.311 142.232 110.389C141.175 112.711 140.005 115.188 138.952 117.401C137.754 119.898 136.713 122.064 136.116 123.301C135.697 123.966 135.092 125.008 134.386 126.272C137.181 125.327 140.102 124.514 143.349 123.927L125.85 130.752C129.943 129.459 133.852 128.248 137.577 127.12C141.68 125.886 145.582 124.714 149.283 123.604C149.374 121.839 149.463 120.101 149.549 118.393C149.595 117.643 149.639 116.899 149.682 116.16C149.722 115.471 149.764 114.786 149.807 114.107C149.985 111.395 150.157 108.757 150.324 106.193C150.361 105.64 150.399 105.091 150.437 104.544ZM152.147 124.923L151.046 111.816C151.051 113.001 151.06 114.173 151.074 115.332C151.079 115.947 151.086 116.558 151.094 117.168L151.102 117.627V118.272C151.105 118.716 151.106 119.156 151.106 119.595C151.117 121.386 151.126 123.16 151.134 124.915C148.994 125.685 146.877 126.447 144.785 127.202L144.015 127.482L143.49 127.68C143.138 127.815 142.788 127.948 142.441 128.081C141.745 128.348 141.051 128.613 140.36 128.878C137.604 129.946 134.887 130.999 132.212 132.036C129.536 133.078 126.88 134.113 124.245 135.139L123.256 135.52L122.764 135.711L122.639 135.762L122.466 135.824L122.042 135.979L118.638 137.208C117.46 137.631 116.281 138.054 115.1 138.476C116.267 139.207 117.437 139.938 118.609 140.67C119.042 140.942 119.477 141.215 119.913 141.49L120.098 141.607L141.13 130.659L139.057 131.172C140.352 130.655 141.619 130.188 142.873 129.749L152.147 124.923ZM85.2014 68.8688L140.719 65.9403L163.575 98.6516L156.818 125.405C157.145 124.837 157.484 124.223 157.818 123.604C158.621 122.115 159.444 120.497 160.247 118.863C161.856 115.597 163.385 112.264 164.494 109.79C169.984 95.9331 160.953 112.726 162.538 107.285C163.377 105.353 164.212 103.435 165.051 101.51C165.261 101.028 165.471 100.544 165.68 100.06L165.838 99.6978L165.878 99.6084C165.89 99.5773 165.906 99.5422 165.906 99.5345L165.934 99.4567L166.039 99.1533C166.168 98.7722 166.298 98.3885 166.427 98.0022C166.139 97.7014 165.848 97.3981 165.555 97.0921C165.467 97.0532 164.543 95.902 163.889 95.1048C162.49 93.3819 161.062 91.5929 159.597 89.7067C156.669 85.942 153.591 81.7923 150.279 77.0398L146.177 70.0744L144.123 66.5937L144.059 66.4848C144.043 66.4498 144.011 66.4031 144.007 66.3875L143.946 66.2592L143.821 65.9947L143.555 65.4503C143.372 65.0795 143.174 64.6906 142.962 64.2835C141.828 64.1202 140.884 63.9491 138.654 63.8363C132.434 65.4308 124.612 66.0025 115.391 66.3059C110.78 66.4576 105.818 66.5392 100.534 66.652C97.8878 66.7064 95.1636 66.7739 92.3614 66.8542C91.0437 66.8957 89.7084 66.9372 88.3557 66.9787C87.5194 67.0046 86.671 67.0357 85.8105 67.072C85.6088 67.6658 85.4057 68.2647 85.2014 68.8688ZM91.6272 70.5528L90.0016 70.1989L74.3624 109.747C74.6394 109.172 74.8976 108.626 75.137 108.11C76.0042 106.251 76.6657 104.734 77.2748 103.249C78.485 100.27 79.4653 97.3955 81.3813 92.0713C82.1397 91.4684 83.7048 88.2133 85.4716 84.293C86.3429 82.3329 87.2868 80.2134 88.1944 78.1716C88.8358 76.7365 89.4651 75.3325 90.0621 73.9946C90.6081 72.7761 91.1297 71.6288 91.6272 70.5528ZM70.139 120.431L75.7742 127.781C75.3951 127.019 75.0146 126.251 74.6327 125.479C74.0841 124.149 73.5772 122.918 73.112 121.788C72.4504 120.269 71.8373 118.859 71.2725 117.561L70.139 120.431ZM89.9573 154.165C89.769 153.885 89.5646 153.581 89.3441 153.255L88.9891 152.963C89.3279 153.394 89.6507 153.794 89.9573 154.165ZM107.892 162.188L99.1907 161.492L93.2932 156.561C93.8579 157.494 94.4348 158.443 95.0519 159.423C95.138 159.56 95.2254 159.699 95.3141 159.839L95.4473 160.049L95.4957 160.15C95.5629 160.285 95.6302 160.421 95.6974 160.559C95.8426 160.839 96.0066 161.137 96.1895 161.453C96.6171 161.533 97.0998 161.607 97.6376 161.675L97.7384 161.686L97.795 161.694L97.8999 161.702C98.0397 161.712 98.1809 161.723 98.3234 161.733C98.6112 161.751 98.9029 161.771 99.1987 161.791C99.7877 161.83 100.395 161.868 101.022 161.904C103.083 162.025 105.358 162.118 107.892 162.188ZM160.235 153.469C162.104 151.065 163.967 148.67 165.826 146.282L148.436 165.432L109.404 162.309C105.681 164.529 150.578 164.483 129.013 166.47C134.402 166.828 138.734 167.026 142.462 167.112C144.325 167.158 146.036 167.174 147.657 167.17C148.46 167.166 149.267 167.158 150.029 167.147C150.796 167.134 151.534 167.116 152.244 167.092C152.892 166.169 153.506 165.277 154.087 164.417C154.692 163.514 155.297 162.616 155.918 161.69C155.19 162.499 154.56 163.197 154.031 163.783C153.534 164.323 153.159 164.72 152.845 165.054C152.223 165.704 151.897 166.015 151.764 166.104C151.578 166.066 151.582 166.038 151.723 166.015C151.925 165.622 152.857 164.382 153.272 163.666C153.329 163.573 153.361 163.507 153.409 163.417C153.458 163.329 153.491 163.256 153.51 163.199C153.551 163.083 153.53 163.032 153.43 163.071C153.333 163.102 153.119 163.269 152.909 163.417C152.681 163.583 152.379 163.827 152.006 164.148L152.752 163.157L153.793 161.803C154.511 160.875 155.227 159.947 155.943 159.018C157.376 157.165 158.807 155.315 160.235 153.469ZM183.542 121.345L182.518 122.274L181.102 123.561L180.388 124.211L179.871 124.685C178.551 125.922 177.228 127.159 175.902 128.396C173.269 130.879 170.629 133.371 167.98 135.87C162.877 140.712 157.758 145.617 152.562 150.587L183.861 122.461L183.542 121.345ZM173.236 88.5555C174.454 91.8924 175.69 95.202 176.943 98.4844C177.072 98.8215 177.201 99.1585 177.33 99.4956L171.287 78.226L164.845 70.7628C165.528 71.8517 166.209 72.9368 166.886 74.018C167.303 74.6739 167.719 75.3286 168.133 75.982C168.604 76.7131 169.073 77.4417 169.541 78.1677C170.17 79.9593 170.798 81.7444 171.425 83.523C172.03 85.2057 172.633 86.8832 173.236 88.5555ZM133.115 114.57L129.904 118.529L127.258 117.502C128.226 118.368 129.162 119.198 130.066 119.991C131.147 118.093 132.147 116.308 133.115 114.57ZM114.277 110.23C114.296 111.033 114.314 111.814 114.33 112.571C114.34 112.949 114.35 113.323 114.358 113.691L114.362 113.761V113.796L114.366 113.804L114.374 113.843L114.398 113.916L114.443 114.06C114.568 114.426 114.693 114.694 114.806 114.904C115.104 114.912 115.417 114.92 115.746 114.928C115.81 114.93 115.875 114.933 115.939 114.935H115.963H115.971C115.975 114.935 115.975 114.935 116.008 114.943C116.099 114.972 116.191 114.999 116.282 115.025C116.468 115.082 116.654 115.139 116.843 115.196C117.593 115.422 118.377 115.665 119.194 115.927C120.028 116.194 120.902 116.481 121.816 116.787C121.166 116.195 120.544 115.641 119.953 115.122C119.786 114.977 119.622 114.834 119.461 114.694C119.38 114.624 119.299 114.554 119.219 114.484C119.154 114.43 119.118 114.403 119.069 114.364C119.032 114.335 118.994 114.307 118.956 114.278L115.334 112.87L114.354 98.9589C114.209 103.564 114.221 107.118 114.277 110.23Z" fill="#5A1E17"/>
<path d="M113.025 119.52C112.337 119.294 111.655 119.076 110.98 118.866C111.868 119.17 112.525 119.376 113.025 119.52Z" fill="#5A1E17"/>
<path d="M177.176 115.645C176.91 114.994 176.649 114.355 176.393 113.728C176.119 113.077 175.85 112.437 175.587 111.807C175.934 112.719 176.259 113.571 176.563 114.362C176.714 114.756 176.86 115.136 177.003 115.501C177.086 115.709 177.165 115.907 177.241 116.096C177.534 116.809 177.793 117.426 178.019 117.948C177.694 118.264 177.423 118.535 177.208 118.76C177.518 118.496 177.82 118.233 178.116 117.971C177.801 117.158 177.487 116.376 177.176 115.645Z" fill="#5A1E17"/>
<path d="M186.829 130.985C186.541 131.284 186.251 131.588 185.958 131.899C184.639 134.085 183.457 136.041 182.295 137.78L186.829 130.985Z" fill="#5A1E17"/>
<path d="M76.6797 74.6148C76.5789 74.0587 76.9622 72.328 77.5309 70.1385C77.6761 69.5914 77.828 69.0197 77.9867 68.4234C78.0701 68.12 78.1548 67.8115 78.2409 67.4978C78.3834 67.0285 78.526 66.554 78.6685 66.0743C79.2615 64.1181 79.8665 62.1152 80.4393 60.2251C82.0044 60.0851 83.501 59.9529 84.8604 59.8323C85.5569 59.7623 86.2131 59.6975 86.8289 59.6378C87.1409 59.6041 87.4421 59.5717 87.7325 59.5406C87.8777 59.5251 88.0202 59.5095 88.16 59.4939C88.2246 59.4862 88.2891 59.4784 88.3536 59.4706C88.3967 59.4628 88.4384 59.4551 88.4787 59.4473C89.7655 59.2334 90.5239 59.0117 90.3988 58.7861L79.7132 59.2995L75.1025 72.7986C77.5228 69.0223 69.4632 92.9403 76.6797 74.6148Z" fill="#5A1E17"/>
<path d="M177.148 60.2802C177.797 61.4819 178.398 62.5009 178.939 63.2904C177.729 60.463 177.241 59.5724 176.946 59.234C176.938 59.2237 176.929 59.2133 176.918 59.2029C176.913 59.1977 176.902 59.1835 176.886 59.1601C176.861 59.1238 176.837 59.0901 176.813 59.059C176.767 58.9994 176.726 58.9475 176.688 58.9035C176.607 58.8179 176.539 58.7557 176.462 58.674C176.373 58.5845 176.273 58.4679 176.139 58.2695C176.314 58.6351 176.486 58.9955 176.656 59.3507C176.825 59.6696 176.989 59.9794 177.148 60.2802Z" fill="#5A1E17"/>
<path d="M147.02 174.243L145.241 201.377L153.152 220.08L140.562 217.331L134.495 198.08L147.02 174.243Z" fill="#5A1E17"/>
<path d="M87.3397 171.604V190.113L65.1415 200.936L62.5436 213.284L49.0383 208.711L51.1158 189.502L81.0105 185.232L87.3397 171.604Z" fill="#5A1E17"/>
<path d="M178.113 156.561L199.493 160.773L195.991 180.425L227.032 184.493V163.39L208.674 169.197L209.029 153.566L178.113 156.561Z" fill="#5A1E17"/>
<path d="M194.333 111.816L211 116.651L220.524 101.269L231 101.771V75.2549L212.666 88.1862L208.156 113.707L194.333 111.816Z" fill="#5A1E17"/>
<path d="M49.0392 125.793L28.136 141.606L0 132.365L0.278311 104.908L28.136 129.087L49.0392 125.793Z" fill="#5A1E17"/>
<path d="M111.199 49.1312L122.396 21.079L110.529 16.0348L116.301 0L88.4316 8.85162L111.219 27.6555L111.199 49.1312Z" fill="#5A1E17"/>
<path d="M68.1876 76.3752L40.4953 75.2551L37.6393 54.9501L16.6836 51.5821L42.4356 21.8926L49.039 63.8367L68.1876 76.3752Z" fill="#5A1E17"/>
<path d="M175.587 47.298L205.175 37.8086L199.358 25.2623L209.394 12.4049L183.856 5.67285L182.489 31.9944L175.587 47.298Z" fill="#5A1E17"/>
</g>
</svg>
